HIERARCHY
ROOT Hips
{
 OFFSET 0.000000 0.000000 0.000000
 CHANNELS 6 Xposition Yposition Zposition Yrotation Xrotation Zrotation
 JOINT Chest
 {
  OFFSET 0.000000 9.585900 0.002600
  CHANNELS 3 Yrotation Xrotation Zrotation
  JOINT Chest2
  {
   OFFSET 0.000000 9.601200 -0.005300
   CHANNELS 3 Yrotation Xrotation Zrotation
   JOINT Chest3
   {
    OFFSET 0.000000 9.561800 0.000000
    CHANNELS 3 Yrotation Xrotation Zrotation
    JOINT Chest4
    {
     OFFSET 0.000000 9.552100 0.000000
     CHANNELS 3 Yrotation Xrotation Zrotation
     JOINT Neck
     {
      OFFSET 0.000000 14.453000 0.000000
      CHANNELS 3 Yrotation Xrotation Zrotation
      JOINT Head
      {
       OFFSET 0.000000 8.936500 -0.011300
       CHANNELS 3 Yrotation Xrotation Zrotation
       End Site
       {
        OFFSET 0.000000 17.073600 -0.006000
       }
      }
     }
     JOINT RightCollar
     {
      OFFSET -2.921100 9.558500 0.000000
      CHANNELS 3 Yrotation Xrotation Zrotation
      JOINT RightShoulder
      {
       OFFSET -13.519700 0.000000 0.000000
       CHANNELS 3 Yrotation Xrotation Zrotation
       JOINT RightElbow
       {
        OFFSET 0.000000 -29.696600 0.000000
        CHANNELS 3 Yrotation Xrotation Zrotation
        JOINT RightWrist
        {
         OFFSET 0.000000 -24.004700 0.000000
         CHANNELS 3 Yrotation Xrotation Zrotation
         End Site
         {
          OFFSET 0.000000 -17.728500 0.000000
         }
        }
       }
      }
     }
     JOINT LeftCollar
     {
      OFFSET 2.921100 9.558500 0.000000
      CHANNELS 3 Yrotation Xrotation Zrotation
      JOINT LeftShoulder
      {
       OFFSET 13.519700 0.000000 0.000000
       CHANNELS 3 Yrotation Xrotation Zrotation
       JOINT LeftElbow
       {
        OFFSET 0.000000 -29.696600 0.000000
        CHANNELS 3 Yrotation Xrotation Zrotation
        JOINT LeftWrist
        {
         OFFSET 0.000000 -24.004700 0.000000
         CHANNELS 3 Yrotation Xrotation Zrotation
         End Site
         {
          OFFSET 0.000000 -17.728500 0.000000
         }
        }
       }
      }
     }
    }
   }
  }
 }
 JOINT RightHip
 {
  OFFSET -7.771700 -0.012900 -0.001300
  CHANNELS 3 Yrotation Xrotation Zrotation
  JOINT RightKnee
  {
   OFFSET 0.000000 -40.869800 0.001200
   CHANNELS 3 Yrotation Xrotation Zrotation
   JOINT RightAnkle
   {
    OFFSET 0.000000 -39.717900 0.002100
    CHANNELS 3 Yrotation Xrotation Zrotation
    JOINT RightToe
    {
     OFFSET 0.000000 -4.965400 11.033500
     CHANNELS 3 Yrotation Xrotation Zrotation
     End Site
     {
      OFFSET 0.000000 -1.423100 5.872300
     }
    }
   }
  }
 }
 JOINT LeftHip
 {
  OFFSET 7.771700 -0.012900 -0.001300
  CHANNELS 3 Yrotation Xrotation Zrotation
  JOINT LeftKnee
  {
   OFFSET 0.000000 -40.869800 0.001200
   CHANNELS 3 Yrotation Xrotation Zrotation
   JOINT LeftAnkle
   {
    OFFSET 0.000000 -39.717900 0.002100
    CHANNELS 3 Yrotation Xrotation Zrotation
    JOINT LeftToe
    {
     OFFSET 0.000000 -4.965400 11.033500
     CHANNELS 3 Yrotation Xrotation Zrotation
     End Site
     {
      OFFSET 0.000000 -1.423100 5.872300
     }
    }
   }
  }
 }
}
MOTION
Frames: 6
Frame Time: 0.008333
-26.700979 61.133950 26.789721 160.860247 -14.846819 2.408344 1.753775 12.146697 1.130733 0.152923 0.891911 0.082996 0.189944 1.546747 0.187307 1.683528 11.032712 1.361719 5.384420 18.494270 -0.619526 5.973714 -6.057563 -1.963858 9.125343 -4.861479 -9.703872 -5.168761 -37.236483 -50.742020 -108.324614 -71.210788 114.772924 -2.940157 -2.644277 -28.669436 -10.115434 -10.002039 0.706895 23.374769 -33.436687 32.276641 75.300606 -67.766360 -94.242140 -3.286434 -2.585221 2.778117 -6.906022 -53.457615 3.242760 -15.428515 71.444935 -9.388141 1.155662 -5.820261 -6.065110 0.074261 -0.335608 0.003896 19.539552 -51.410059 -2.982325 31.775140 72.131846 28.947878 -17.992927 -16.043246 2.480679 0.232164 0.511809 0.117917
-26.699656 61.134069 26.793266 160.841243 -14.856262 2.378482 1.764358 12.160526 1.171522 0.105674 0.905580 0.109891 0.208645 1.541122 0.176082 1.669799 11.034592 1.372300 5.282953 18.510078 -0.631721 5.863201 -6.047390 -1.948242 9.064197 -4.989383 -9.858436 -5.249193 -37.300758 -51.057322 -109.034946 -71.179169 115.176827 -3.042910 -2.818507 -28.682992 -10.014944 -10.079358 0.848433 23.567529 -33.614058 32.466528 75.258473 -67.429257 -94.045785 -3.091724 -2.789012 2.991940 -6.932599 -53.444205 3.294265 -15.429868 71.435938 -9.385762 1.167884 -5.790688 -6.055664 0.063557 -0.350833 -0.002712 19.513998 -51.409960 -2.927241 31.736499 72.141937 28.904939 -17.927552 -16.073878 2.455910 0.290407 0.524112 0.143273
-26.703167 61.134798 26.796400 160.819812 -14.861053 2.375738 1.770507 12.170276 1.184078 0.086859 0.908075 0.118374 0.206070 1.542750 0.178025 1.655628 11.042164 1.384894 5.185032 18.525675 -0.637073 5.760742 -6.033958 -1.931436 8.998737 -5.105970 -10.001154 -5.361522 -37.388047 -51.334092 -109.683182 -71.134542 115.544868 -3.143396 -2.969691 -28.700175 -9.918072 -10.147187 0.986598 23.770420 -33.785534 32.632252 75.205876 -67.074394 -93.851609 -2.905488 -2.985322 3.194010 -6.922483 -53.442774 3.306745 -15.449852 71.428327 -9.406977 1.170012 -5.760588 -6.046140 0.061396 -0.362651 0.001120 19.531963 -51.406873 -2.916374 31.681001 72.151696 28.854217 -17.964385 -16.073983 2.455221 0.295486 0.518217 0.152796
-26.713244 61.136116 26.798881 160.800494 -14.860602 2.409767 1.749863 12.177061 1.162679 0.081808 0.909933 0.118540 0.203413 1.544441 0.179948 1.639618 11.047083 1.397249 5.096976 18.547532 -0.639949 5.667419 -6.016144 -1.914405 8.933612 -5.208923 -10.132177 -5.496492 -37.498850 -51.579891 -110.281423 -71.080917 115.894950 -3.230545 -3.094645 -28.724142 -9.820850 -10.203294 1.111048 23.987473 -33.948328 32.782575 75.174556 -66.709855 -93.686031 -2.735027 -3.165294 3.376782 -6.862162 -53.450537 3.257519 -15.467576 71.417336 -9.429654 1.160780 -5.743024 -6.037494 0.072466 -0.362067 0.006829 19.594763 -51.395942 -2.958598 31.632919 72.155457 28.814357 -18.138284 -16.044337 2.489839 0.221312 0.500865 0.135222
-26.717695 61.137524 26.804473 160.765625 -14.856934 2.409414 1.718997 12.188468 1.182040 0.107528 0.907547 0.109596 0.221924 1.539022 0.173183 1.560324 11.069433 1.442139 5.050266 18.564878 -0.673353 5.583625 -5.994301 -1.896745 8.912997 -5.306990 -10.283209 -5.660244 -37.635117 -51.795438 -110.837873 -71.021818 116.246017 -3.299585 -3.195677 -28.759256 -9.675681 -10.271156 1.191647 24.219530 -34.096497 32.921478 75.185904 -66.346114 -93.566145 -2.581515 -3.328427 3.536012 -6.837113 -53.455172 3.274656 -15.476443 71.403481 -9.442447 1.167472 -5.737519 -6.026708 0.065442 -0.343225 0.007673 19.629099 -51.398156 -2.950131 31.610567 72.150317 28.796167 -18.216668 -15.991138 2.515234 0.161410 0.457200 0.110703
-26.727051 61.138860 26.811553 160.762629 -14.841022 2.425798 1.669435 12.190535 1.172025 0.115382 0.906189 0.107082 0.241409 1.529780 0.167412 1.506809 11.089776 1.472033 4.994419 18.587277 -0.682472 5.510086 -5.970530 -1.877866 8.861968 -5.389648 -10.402104 -5.862424 -37.792945 -51.982647 -111.380773 -70.961934 116.623865 -3.352506 -3.276107 -28.796839 -9.560281 -10.330029 1.280281 24.468252 -34.224326 33.048249 75.243342 -65.995183 -93.490285 -2.442332 -3.479429 3.668376 -6.812103 -53.475669 3.260957 -15.504793 71.383873 -9.482717 1.142532 -5.690569 -6.020939 0.087320 -0.366490 0.020636 19.663002 -51.403166 -2.985424 31.630762 72.129505 28.801982 -18.284624 -16.005528 2.529702 0.184366 0.487497 0.112676
